<svg xmlns="http://www.w3.org/2000/svg" viewBox="0 0 1280 1100" role="img" preserveAspectRatio="xMidYMin meet" style="max-width:100%;height:auto">
<defs>
<linearGradient id="panelGradient" x1="0" x2="0" y1="0" y2="1">
<stop offset="0%" stop-color="#ffffff"/>
<stop offset="100%" stop-color="#f8fafc"/>
</linearGradient>
<pattern id="diagonalHatch" width="8" height="8" patternUnits="userSpaceOnUse" patternTransform="rotate(45)">
<line x1="0" y1="0" x2="0" y2="8" stroke="#cdd6e1" stroke-width="3"/>
</pattern>
<filter id="softShadow" x="-20%" y="-20%" width="140%" height="140%">
<feDropShadow dx="0" dy="6" stdDeviation="10" flood-color="#9fb0c2" flood-opacity="0.18"/>
</filter>
<style>
.canvas { fill: #f3f6fa; }
.title { font: 700 26px 'IBM Plex Sans', 'Helvetica Neue', Arial, sans-serif; fill: #12263a; }
.subtitle { font: 400 14px 'IBM Plex Sans', 'Helvetica Neue', Arial, sans-serif; fill: #5c6b7a; }
.axis { font: 600 14px 'IBM Plex Sans', 'Helvetica Neue', Arial, sans-serif; fill: #22313f; }
.label { font: 500 13px 'IBM Plex Sans', 'Helvetica Neue', Arial, sans-serif; fill: #22313f; }
.metric { font: 700 20px 'IBM Plex Sans', 'Helvetica Neue', Arial, sans-serif; fill: #12263a; }
.celltext { font: 700 16px 'IBM Plex Sans', 'Helvetica Neue', Arial, sans-serif; fill: #ffffff; }
.celltext-dark { font: 700 16px 'IBM Plex Sans', 'Helvetica Neue', Arial, sans-serif; fill: #173042; }
.cellsub { font: 500 11px 'IBM Plex Sans', 'Helvetica Neue', Arial, sans-serif; fill: rgba(255,255,255,0.88); }
.cellsub-dark { font: 600 11px 'IBM Plex Sans', 'Helvetica Neue', Arial, sans-serif; fill: #385062; }
.body { font: 500 12px 'IBM Plex Sans', 'Helvetica Neue', Arial, sans-serif; fill: #22313f; }
.small { font: 500 11px 'IBM Plex Sans', 'Helvetica Neue', Arial, sans-serif; fill: #5c6b7a; }
.tiny { font: 600 10px 'IBM Plex Sans', 'Helvetica Neue', Arial, sans-serif; fill: #6b7c8f; letter-spacing: 0.04em; }
.grid { fill: #ffffff; stroke: #d7dee6; stroke-width: 1.25; }
.panel { fill: url(#panelGradient); stroke: #dbe4ee; stroke-width: 1.25; filter: url(#softShadow); }
.subpanel { fill: #ffffff; stroke: #e2e8f0; stroke-width: 1; }
.legend-card { fill: #ffffff; stroke: #dbe4ee; stroke-width: 1; }
.guide { stroke: #d7dee6; stroke-width: 1; stroke-dasharray: 4 6; }
.baseline { stroke: #aab7c6; stroke-width: 1.1; }
.muted-cell { fill: #eef2f7; stroke: #d7dee6; stroke-width: 1; }
.muted-bar { fill: #ecf1f6; stroke: #d7dee6; stroke-width: 1; }
.outline { stroke: rgba(255,255,255,0.9); stroke-width: 1; }
</style>
</defs>
<rect x="0" y="0" width="1280" height="1100" class="canvas"/>
<rect x="24" y="24" width="1232" height="1052" rx="22" class="panel"/>
<title>Family scaling profile by benchmark</title>
<desc>Three-panel family scaling view across the directly comparable accuracy benchmarks only: UniMoral, SMID, and Value Kaleidoscope. CCD-Bench and Denevil are intentionally excluded from this line chart because they are reported separately as coverage and proxy evidence rather than benchmark-faithful accuracy.</desc>
<text x="48" y="64" class="title">Family Scaling Profile</text>
<text x="48" y="92" class="subtitle">Three comparable benchmark panels only: UniMoral, SMID, and Value Kaleidoscope.</text>
<text x="48" y="114" class="subtitle">This figure is reserved for benchmark-faithful comparable accuracy, not CCD coverage or Denevil proxy evidence.</text>
<text x="48" y="136" class="subtitle">Read CCD-Bench in the dedicated valid-choice coverage + distribution figures below.</text>
<text x="48" y="158" class="subtitle">Read Denevil in the dedicated proxy status / volume / valid-response figures below.</text>
<rect x="52" y="248" width="382" height="356" rx="20" class="subpanel"/>
<rect x="346" y="264" width="66" height="20" rx="10" fill="#edf2f7" stroke="#d7dee6" stroke-width="1"/>
<text x="379" y="278" text-anchor="middle" class="tiny">SCORED</text>
<text x="74" y="278" class="axis">#1 UniMoral</text>
<text x="74" y="298" class="small">Action prediction accuracy</text>
<line x1="98" y1="542.00" x2="398" y2="542.00" class="guide"/>
<text x="86" y="546.00" text-anchor="end" class="small">20%</text>
<line x1="98" y1="478.73" x2="398" y2="478.73" class="guide"/>
<text x="86" y="482.73" text-anchor="end" class="small">35%</text>
<line x1="98" y1="415.45" x2="398" y2="415.45" class="guide"/>
<text x="86" y="419.45" text-anchor="end" class="small">50%</text>
<line x1="98" y1="352.18" x2="398" y2="352.18" class="guide"/>
<text x="86" y="356.18" text-anchor="end" class="small">65%</text>
<line x1="98" y1="310.00" x2="398" y2="310.00" class="guide"/>
<text x="86" y="314.00" text-anchor="end" class="small">75%</text>
<line x1="98.00" y1="310" x2="98.00" y2="542" class="guide"/>
<text x="98.00" y="566" text-anchor="middle" class="axis">S</text>
<line x1="248.00" y1="310" x2="248.00" y2="542" class="guide"/>
<text x="248.00" y="566" text-anchor="middle" class="axis">M</text>
<line x1="398.00" y1="310" x2="398.00" y2="542" class="guide"/>
<text x="398.00" y="566" text-anchor="middle" class="axis">L</text>
<circle cx="393.00" cy="338.00" r="8" fill="#ffffff" stroke="#2563eb" stroke-width="3.4"/>
<circle cx="393.00" cy="338.00" r="4.2" fill="#2563eb"/>
<text x="373.00" y="324.00" text-anchor="end" class="small">DeepSeek-L</text>
<line x1="103.00" y1="353.03" x2="253.00" y2="343.81" stroke="#ffffff" stroke-width="6.4" stroke-linecap="round" opacity="0.95"/>
<line x1="103.00" y1="353.03" x2="253.00" y2="343.81" stroke="#ea580c" stroke-width="4.4" stroke-linecap="round"/>
<line x1="253.00" y1="343.81" x2="403.00" y2="348.03" stroke="#ffffff" stroke-width="6.4" stroke-linecap="round" opacity="0.95"/>
<line x1="253.00" y1="343.81" x2="403.00" y2="348.03" stroke="#ea580c" stroke-width="4.4" stroke-linecap="round"/>
<circle cx="103.00" cy="353.03" r="8" fill="#ffffff" stroke="#ea580c" stroke-width="3.4"/>
<circle cx="103.00" cy="353.03" r="4.2" fill="#ea580c"/>
<circle cx="253.00" cy="343.81" r="8" fill="#ffffff" stroke="#ea580c" stroke-width="3.4"/>
<circle cx="253.00" cy="343.81" r="4.2" fill="#ea580c"/>
<circle cx="403.00" cy="348.03" r="8" fill="#ffffff" stroke="#ea580c" stroke-width="3.4"/>
<circle cx="403.00" cy="348.03" r="4.2" fill="#ea580c"/>
<line x1="113.00" y1="358.41" x2="263.00" y2="346.88" stroke="#ffffff" stroke-width="6.8" stroke-linecap="round" opacity="0.95"/>
<line x1="113.00" y1="358.41" x2="263.00" y2="346.88" stroke="#8b5cf6" stroke-width="4.8" stroke-linecap="round"/>
<line x1="263.00" y1="346.88" x2="413.00" y2="347.50" stroke="#ffffff" stroke-width="6.8" stroke-linecap="round" opacity="0.95"/>
<line x1="263.00" y1="346.88" x2="413.00" y2="347.50" stroke="#8b5cf6" stroke-width="4.8" stroke-linecap="round"/>
<circle cx="113.00" cy="358.41" r="8" fill="#ffffff" stroke="#8b5cf6" stroke-width="3.4"/>
<circle cx="113.00" cy="358.41" r="4.2" fill="#8b5cf6"/>
<circle cx="263.00" cy="346.88" r="8" fill="#ffffff" stroke="#8b5cf6" stroke-width="3.4"/>
<circle cx="263.00" cy="346.88" r="4.2" fill="#8b5cf6"/>
<circle cx="413.00" cy="347.50" r="8" fill="#ffffff" stroke="#8b5cf6" stroke-width="3.4"/>
<circle cx="413.00" cy="347.50" r="4.2" fill="#8b5cf6"/>
<line x1="83.00" y1="353.27" x2="233.00" y2="346.06" stroke="#ffffff" stroke-width="7.8" stroke-linecap="round" opacity="0.95"/>
<line x1="83.00" y1="353.27" x2="233.00" y2="346.06" stroke="#0d9488" stroke-width="5.8" stroke-linecap="round"/>
<line x1="233.00" y1="346.06" x2="383.00" y2="345.73" stroke="#ffffff" stroke-width="7.8" stroke-linecap="round" opacity="0.95"/>
<line x1="233.00" y1="346.06" x2="383.00" y2="345.73" stroke="#0d9488" stroke-width="5.8" stroke-linecap="round"/>
<circle cx="83.00" cy="353.27" r="8" fill="#ffffff" stroke="#0d9488" stroke-width="3.4"/>
<circle cx="83.00" cy="353.27" r="4.2" fill="#0d9488"/>
<circle cx="233.00" cy="346.06" r="8" fill="#ffffff" stroke="#0d9488" stroke-width="3.4"/>
<circle cx="233.00" cy="346.06" r="4.2" fill="#0d9488"/>
<circle cx="383.00" cy="345.73" r="8" fill="#ffffff" stroke="#0d9488" stroke-width="3.4"/>
<circle cx="383.00" cy="345.73" r="4.2" fill="#0d9488"/>
<text x="70" y="590" class="small">Dashed connectors skip missing size slots; no point means no public comparable score.</text>
<rect x="452" y="248" width="382" height="356" rx="20" class="subpanel"/>
<rect x="746" y="264" width="66" height="20" rx="10" fill="#edf2f7" stroke="#d7dee6" stroke-width="1"/>
<text x="779" y="278" text-anchor="middle" class="tiny">SCORED</text>
<text x="474" y="278" class="axis">#2 SMID</text>
<text x="474" y="298" class="small">Average of moral rating and foundation classification</text>
<line x1="498" y1="542.00" x2="798" y2="542.00" class="guide"/>
<text x="486" y="546.00" text-anchor="end" class="small">20%</text>
<line x1="498" y1="478.73" x2="798" y2="478.73" class="guide"/>
<text x="486" y="482.73" text-anchor="end" class="small">35%</text>
<line x1="498" y1="415.45" x2="798" y2="415.45" class="guide"/>
<text x="486" y="419.45" text-anchor="end" class="small">50%</text>
<line x1="498" y1="352.18" x2="798" y2="352.18" class="guide"/>
<text x="486" y="356.18" text-anchor="end" class="small">65%</text>
<line x1="498" y1="310.00" x2="798" y2="310.00" class="guide"/>
<text x="486" y="314.00" text-anchor="end" class="small">75%</text>
<line x1="498.00" y1="310" x2="498.00" y2="542" class="guide"/>
<text x="498.00" y="566" text-anchor="middle" class="axis">S</text>
<line x1="648.00" y1="310" x2="648.00" y2="542" class="guide"/>
<text x="648.00" y="566" text-anchor="middle" class="axis">M</text>
<line x1="798.00" y1="310" x2="798.00" y2="542" class="guide"/>
<text x="798.00" y="566" text-anchor="middle" class="axis">L</text>
<line x1="503.00" y1="535.07" x2="803.00" y2="463.50" stroke="#ffffff" stroke-width="6.4" stroke-linecap="round" opacity="0.95" stroke-dasharray="7 6"/>
<line x1="503.00" y1="535.07" x2="803.00" y2="463.50" stroke="#ea580c" stroke-width="4.4" stroke-linecap="round" stroke-dasharray="7 6"/>
<circle cx="503.00" cy="535.07" r="8" fill="#ffffff" stroke="#ea580c" stroke-width="3.4"/>
<circle cx="503.00" cy="535.07" r="4.2" fill="#ea580c"/>
<circle cx="803.00" cy="463.50" r="8" fill="#ffffff" stroke="#ea580c" stroke-width="3.4"/>
<circle cx="803.00" cy="463.50" r="4.2" fill="#ea580c"/>
<line x1="513.00" y1="450.52" x2="663.00" y2="472.97" stroke="#ffffff" stroke-width="6.8" stroke-linecap="round" opacity="0.95"/>
<line x1="513.00" y1="450.52" x2="663.00" y2="472.97" stroke="#8b5cf6" stroke-width="4.8" stroke-linecap="round"/>
<line x1="663.00" y1="472.97" x2="813.00" y2="452.46" stroke="#ffffff" stroke-width="6.8" stroke-linecap="round" opacity="0.95"/>
<line x1="663.00" y1="472.97" x2="813.00" y2="452.46" stroke="#8b5cf6" stroke-width="4.8" stroke-linecap="round"/>
<circle cx="513.00" cy="450.52" r="8" fill="#ffffff" stroke="#8b5cf6" stroke-width="3.4"/>
<circle cx="513.00" cy="450.52" r="4.2" fill="#8b5cf6"/>
<circle cx="663.00" cy="472.97" r="8" fill="#ffffff" stroke="#8b5cf6" stroke-width="3.4"/>
<circle cx="663.00" cy="472.97" r="4.2" fill="#8b5cf6"/>
<circle cx="813.00" cy="452.46" r="8" fill="#ffffff" stroke="#8b5cf6" stroke-width="3.4"/>
<circle cx="813.00" cy="452.46" r="4.2" fill="#8b5cf6"/>
<line x1="483.00" y1="471.10" x2="783.00" y2="422.70" stroke="#ffffff" stroke-width="7.8" stroke-linecap="round" opacity="0.95" stroke-dasharray="7 6"/>
<line x1="483.00" y1="471.10" x2="783.00" y2="422.70" stroke="#0d9488" stroke-width="5.8" stroke-linecap="round" stroke-dasharray="7 6"/>
<circle cx="483.00" cy="471.10" r="8" fill="#ffffff" stroke="#0d9488" stroke-width="3.4"/>
<circle cx="483.00" cy="471.10" r="4.2" fill="#0d9488"/>
<circle cx="783.00" cy="422.70" r="8" fill="#ffffff" stroke="#0d9488" stroke-width="3.4"/>
<circle cx="783.00" cy="422.70" r="4.2" fill="#0d9488"/>
<text x="470" y="590" class="small">Dashed connectors skip missing size slots; no point means no public comparable score.</text>
<rect x="852" y="248" width="382" height="356" rx="20" class="subpanel"/>
<rect x="1146" y="264" width="66" height="20" rx="10" fill="#edf2f7" stroke="#d7dee6" stroke-width="1"/>
<text x="1179" y="278" text-anchor="middle" class="tiny">SCORED</text>
<text x="874" y="278" class="axis">#3 Value Kaleidoscope</text>
<text x="874" y="298" class="small">Average of relevance and valence accuracy</text>
<line x1="898" y1="542.00" x2="1198" y2="542.00" class="guide"/>
<text x="886" y="546.00" text-anchor="end" class="small">20%</text>
<line x1="898" y1="478.73" x2="1198" y2="478.73" class="guide"/>
<text x="886" y="482.73" text-anchor="end" class="small">35%</text>
<line x1="898" y1="415.45" x2="1198" y2="415.45" class="guide"/>
<text x="886" y="419.45" text-anchor="end" class="small">50%</text>
<line x1="898" y1="352.18" x2="1198" y2="352.18" class="guide"/>
<text x="886" y="356.18" text-anchor="end" class="small">65%</text>
<line x1="898" y1="310.00" x2="1198" y2="310.00" class="guide"/>
<text x="886" y="314.00" text-anchor="end" class="small">75%</text>
<line x1="898.00" y1="310" x2="898.00" y2="542" class="guide"/>
<text x="898.00" y="566" text-anchor="middle" class="axis">S</text>
<line x1="1048.00" y1="310" x2="1048.00" y2="542" class="guide"/>
<text x="1048.00" y="566" text-anchor="middle" class="axis">M</text>
<line x1="1198.00" y1="310" x2="1198.00" y2="542" class="guide"/>
<text x="1198.00" y="566" text-anchor="middle" class="axis">L</text>
<circle cx="1193.00" cy="358.65" r="8" fill="#ffffff" stroke="#2563eb" stroke-width="3.4"/>
<circle cx="1193.00" cy="358.65" r="4.2" fill="#2563eb"/>
<text x="1173.00" y="342.65" text-anchor="end" class="small">DeepSeek-L</text>
<line x1="903.00" y1="403.40" x2="1053.00" y2="321.12" stroke="#ffffff" stroke-width="6.4" stroke-linecap="round" opacity="0.95"/>
<line x1="903.00" y1="403.40" x2="1053.00" y2="321.12" stroke="#ea580c" stroke-width="4.4" stroke-linecap="round"/>
<line x1="1053.00" y1="321.12" x2="1203.00" y2="334.33" stroke="#ffffff" stroke-width="6.4" stroke-linecap="round" opacity="0.95"/>
<line x1="1053.00" y1="321.12" x2="1203.00" y2="334.33" stroke="#ea580c" stroke-width="4.4" stroke-linecap="round"/>
<circle cx="903.00" cy="403.40" r="8" fill="#ffffff" stroke="#ea580c" stroke-width="3.4"/>
<circle cx="903.00" cy="403.40" r="4.2" fill="#ea580c"/>
<circle cx="1053.00" cy="321.12" r="8" fill="#ffffff" stroke="#ea580c" stroke-width="3.4"/>
<circle cx="1053.00" cy="321.12" r="4.2" fill="#ea580c"/>
<circle cx="1203.00" cy="334.33" r="8" fill="#ffffff" stroke="#ea580c" stroke-width="3.4"/>
<circle cx="1203.00" cy="334.33" r="4.2" fill="#ea580c"/>
<line x1="913.00" y1="376.37" x2="1063.00" y2="346.42" stroke="#ffffff" stroke-width="6.8" stroke-linecap="round" opacity="0.95"/>
<line x1="913.00" y1="376.37" x2="1063.00" y2="346.42" stroke="#8b5cf6" stroke-width="4.8" stroke-linecap="round"/>
<line x1="1063.00" y1="346.42" x2="1213.00" y2="349.66" stroke="#ffffff" stroke-width="6.8" stroke-linecap="round" opacity="0.95"/>
<line x1="1063.00" y1="346.42" x2="1213.00" y2="349.66" stroke="#8b5cf6" stroke-width="4.8" stroke-linecap="round"/>
<circle cx="913.00" cy="376.37" r="8" fill="#ffffff" stroke="#8b5cf6" stroke-width="3.4"/>
<circle cx="913.00" cy="376.37" r="4.2" fill="#8b5cf6"/>
<circle cx="1063.00" cy="346.42" r="8" fill="#ffffff" stroke="#8b5cf6" stroke-width="3.4"/>
<circle cx="1063.00" cy="346.42" r="4.2" fill="#8b5cf6"/>
<circle cx="1213.00" cy="349.66" r="8" fill="#ffffff" stroke="#8b5cf6" stroke-width="3.4"/>
<circle cx="1213.00" cy="349.66" r="4.2" fill="#8b5cf6"/>
<line x1="883.00" y1="338.51" x2="1033.00" y2="341.76" stroke="#ffffff" stroke-width="7.8" stroke-linecap="round" opacity="0.95"/>
<line x1="883.00" y1="338.51" x2="1033.00" y2="341.76" stroke="#0d9488" stroke-width="5.8" stroke-linecap="round"/>
<line x1="1033.00" y1="341.76" x2="1183.00" y2="350.85" stroke="#ffffff" stroke-width="7.8" stroke-linecap="round" opacity="0.95"/>
<line x1="1033.00" y1="341.76" x2="1183.00" y2="350.85" stroke="#0d9488" stroke-width="5.8" stroke-linecap="round"/>
<circle cx="883.00" cy="338.51" r="8" fill="#ffffff" stroke="#0d9488" stroke-width="3.4"/>
<circle cx="883.00" cy="338.51" r="4.2" fill="#0d9488"/>
<circle cx="1033.00" cy="341.76" r="8" fill="#ffffff" stroke="#0d9488" stroke-width="3.4"/>
<circle cx="1033.00" cy="341.76" r="4.2" fill="#0d9488"/>
<circle cx="1183.00" cy="350.85" r="8" fill="#ffffff" stroke="#0d9488" stroke-width="3.4"/>
<circle cx="1183.00" cy="350.85" r="4.2" fill="#0d9488"/>
<text x="870" y="590" class="small">Dashed connectors skip missing size slots; no point means no public comparable score.</text>
<rect x="48" y="644" width="1184" height="360" rx="18" class="legend-card"/>
<text x="72" y="670" class="tiny">HOW TO READ THIS FIGURE</text>
<line x1="618" y1="672" x2="618" y2="982" class="guide"/>
<text x="72" y="696" class="body">Panels 1-3 show only benchmark-faithful comparable accuracy.</text>
<text x="72" y="722" class="body">Use this figure for family-size comparisons on UniMoral,</text>
<text x="72" y="748" class="body">SMID, and Value Kaleidoscope.</text>
<text x="72" y="774" class="body">CCD-Bench is intentionally excluded here.</text>
<text x="72" y="800" class="body">Read CCD-Bench in Figures 5-7.</text>
<text x="72" y="826" class="body">Proxy-only coverage and traceability evidence;</text>
<text x="72" y="852" class="body">MoralPrompt unavailable; not benchmark-faithful</text>
<text x="72" y="878" class="body">ethical-quality scoring.</text>
<text x="72" y="904" class="body">Read Denevil in Figures 8-11.</text>
<text x="656" y="696" class="tiny">FAMILY READ</text>
<rect x="656" y="710" width="14" height="14" rx="4" fill="#0d9488"/>
<text x="680" y="721" class="small">Qwen: text scored at S/M/L; SMID at S/L.</text>
<rect x="656" y="740" width="14" height="14" rx="4" fill="#2563eb"/>
<text x="680" y="751" class="small">DeepSeek: only L is scored up top; M is read in CCD / Denevil figures.</text>
<rect x="656" y="770" width="14" height="14" rx="4" fill="#ea580c"/>
<text x="680" y="781" class="small">Llama: text scored at S/M/L; SMID at S/L.</text>
<rect x="656" y="800" width="14" height="14" rx="4" fill="#8b5cf6"/>
<text x="680" y="811" class="small">Gemma: full S/M/L scored sweep.</text>
<text x="656" y="860" class="tiny">EVIDENCE BOUNDARY</text>
<text x="656" y="886" class="body">This figure stops at the three accuracy-comparable benchmarks.</text>
<text x="656" y="914" class="body">That avoids mixing comparable accuracy with coverage or proxy evidence.</text>
<text x="72" y="1044" class="small">Takeaway: current evidence supports task-specific scaling statements across the three comparable accuracy benchmarks, not a single universal size law across all five benchmark surfaces.</text>
</svg>
