<svg xmlns="http://www.w3.org/2000/svg" viewBox="0 0 1780 1010" role="img" preserveAspectRatio="xMidYMin meet" style="max-width:100%;height:auto">
<defs>
<linearGradient id="panelGradient" x1="0" x2="0" y1="0" y2="1">
<stop offset="0%" stop-color="#ffffff"/>
<stop offset="100%" stop-color="#f8fafc"/>
</linearGradient>
<pattern id="diagonalHatch" width="8" height="8" patternUnits="userSpaceOnUse" patternTransform="rotate(45)">
<line x1="0" y1="0" x2="0" y2="8" stroke="#cdd6e1" stroke-width="3"/>
</pattern>
<filter id="softShadow" x="-20%" y="-20%" width="140%" height="140%">
<feDropShadow dx="0" dy="6" stdDeviation="10" flood-color="#9fb0c2" flood-opacity="0.18"/>
</filter>
<style>
.canvas { fill: #f3f6fa; }
.title { font: 700 26px 'IBM Plex Sans', 'Helvetica Neue', Arial, sans-serif; fill: #12263a; }
.subtitle { font: 400 14px 'IBM Plex Sans', 'Helvetica Neue', Arial, sans-serif; fill: #5c6b7a; }
.axis { font: 600 14px 'IBM Plex Sans', 'Helvetica Neue', Arial, sans-serif; fill: #22313f; }
.label { font: 500 13px 'IBM Plex Sans', 'Helvetica Neue', Arial, sans-serif; fill: #22313f; }
.metric { font: 700 20px 'IBM Plex Sans', 'Helvetica Neue', Arial, sans-serif; fill: #12263a; }
.celltext { font: 700 16px 'IBM Plex Sans', 'Helvetica Neue', Arial, sans-serif; fill: #ffffff; }
.celltext-dark { font: 700 16px 'IBM Plex Sans', 'Helvetica Neue', Arial, sans-serif; fill: #173042; }
.cellsub { font: 500 11px 'IBM Plex Sans', 'Helvetica Neue', Arial, sans-serif; fill: rgba(255,255,255,0.88); }
.cellsub-dark { font: 600 11px 'IBM Plex Sans', 'Helvetica Neue', Arial, sans-serif; fill: #385062; }
.body { font: 500 12px 'IBM Plex Sans', 'Helvetica Neue', Arial, sans-serif; fill: #22313f; }
.small { font: 500 11px 'IBM Plex Sans', 'Helvetica Neue', Arial, sans-serif; fill: #5c6b7a; }
.tiny { font: 600 10px 'IBM Plex Sans', 'Helvetica Neue', Arial, sans-serif; fill: #6b7c8f; letter-spacing: 0.04em; }
.grid { fill: #ffffff; stroke: #d7dee6; stroke-width: 1.25; }
.panel { fill: url(#panelGradient); stroke: #dbe4ee; stroke-width: 1.25; filter: url(#softShadow); }
.subpanel { fill: #ffffff; stroke: #e2e8f0; stroke-width: 1; }
.legend-card { fill: #ffffff; stroke: #dbe4ee; stroke-width: 1; }
.guide { stroke: #d7dee6; stroke-width: 1; stroke-dasharray: 4 6; }
.baseline { stroke: #aab7c6; stroke-width: 1.1; }
.muted-cell { fill: #eef2f7; stroke: #d7dee6; stroke-width: 1; }
.muted-bar { fill: #ecf1f6; stroke: #d7dee6; stroke-width: 1; }
.outline { stroke: rgba(255,255,255,0.9); stroke-width: 1; }
</style>
</defs>
<rect x="0" y="0" width="1780" height="1010" class="canvas"/>
<rect x="24" y="24" width="1732" height="962" rx="22" class="panel"/>
<title>DeNEVIL proxy behavioral outcomes, not accuracy</title>
<desc>Horizontal stacked bars summarizing visible behavioral outcomes in the released DeNEVIL FULCRA-backed proxy archives. Segments show protective refusals, redirects, corrective/contextual responses, direct task answers, potentially risky continuations, ambiguous visible answers, and empty traces. This is proxy behavioral evidence, not benchmark-faithful ethical-quality scoring.</desc>
<text x="48" y="64" class="title">DeNEVIL proxy behavioral outcomes, not accuracy</text>
<text x="48" y="88" class="subtitle">Proxy-only coverage and traceability evidence; MoralPrompt unavailable; not benchmark-faithful ethical-quality scoring.</text>
<text x="48" y="108" class="subtitle">Each bar distributes all released proxy prompts across auditable visible-behavior categories. Rows are grouped by family and ordered S → M → L for direct size comparisons.</text>
<text x="48" y="128" class="subtitle">Paper-aligned APV / EVR / MVP are `n/a` in this public package because the original MoralPrompt export is unavailable locally; these proxy categories are the strongest auditable substitute on the released traces.</text>
<text x="107.00" y="200" text-anchor="middle" class="tiny">FAMILY</text>
<text x="212.00" y="200" text-anchor="middle" class="tiny">SIZE</text>
<text x="258" y="200" class="tiny">MODEL LINE</text>
<text x="1214" y="200" class="tiny">DOMINANT / PROTECTIVE</text>
<line x1="430.00" y1="208" x2="430.00" y2="818" class="guide"/>
<text x="430.00" y="200" text-anchor="middle" class="small">0%</text>
<line x1="620.00" y1="208" x2="620.00" y2="818" class="guide"/>
<text x="620.00" y="200" text-anchor="middle" class="small">25%</text>
<line x1="810.00" y1="208" x2="810.00" y2="818" class="guide"/>
<text x="810.00" y="200" text-anchor="middle" class="small">50%</text>
<line x1="1000.00" y1="208" x2="1000.00" y2="818" class="guide"/>
<text x="1000.00" y="200" text-anchor="middle" class="small">75%</text>
<line x1="1190.00" y1="208" x2="1190.00" y2="818" class="guide"/>
<text x="1190.00" y="200" text-anchor="middle" class="small">100%</text>
<rect x="48" y="212" width="118" height="138" rx="18" fill="#d8eeec" stroke="#0d9488" stroke-width="1.2"/>
<text x="107.00" y="286.00" text-anchor="middle" class="label">Qwen</text>
<rect x="48" y="356" width="118" height="138" rx="18" fill="#dce6fc" stroke="#2563eb" stroke-width="1.2"/>
<text x="107.00" y="430.00" text-anchor="middle" class="label">DeepSeek</text>
<line x1="48" y1="346.00" x2="1732" y2="346.00" class="baseline"/>
<rect x="48" y="500" width="118" height="138" rx="18" fill="#fce4d8" stroke="#ea580c" stroke-width="1.2"/>
<text x="107.00" y="574.00" text-anchor="middle" class="label">Llama</text>
<line x1="48" y1="490.00" x2="1732" y2="490.00" class="baseline"/>
<rect x="48" y="644" width="118" height="138" rx="18" fill="#ece5fe" stroke="#8b5cf6" stroke-width="1.2"/>
<text x="107.00" y="718.00" text-anchor="middle" class="label">Gemma</text>
<line x1="48" y1="634.00" x2="1732" y2="634.00" class="baseline"/>
<rect x="184" y="222" width="56" height="22" rx="12" fill="#0f766e"/>
<text x="212.00" y="238.00" text-anchor="middle" class="celltext">S</text>
<text x="258" y="238.00" class="label">Qwen-S</text>
<rect x="430" y="218" width="760" height="30" rx="10" class="muted-bar"/>
<rect x="430" y="218" width="760" height="30" rx="10" fill="url(#diagonalHatch)" opacity="0.85"/>
<text x="810.00" y="238.00" text-anchor="middle" class="small">n/a — no released proxy archive</text>
<text x="1214" y="238.00" class="small">dominant behavior n/a</text>
<rect x="184" y="270" width="56" height="22" rx="12" fill="#0d9488"/>
<text x="212.00" y="286.00" text-anchor="middle" class="celltext">M</text>
<text x="258" y="286.00" class="label">Qwen-M</text>
<rect x="430" y="266" width="760" height="30" rx="10" class="muted-bar"/>
<rect x="430" y="266" width="760" height="30" rx="10" fill="url(#diagonalHatch)" opacity="0.85"/>
<text x="810.00" y="286.00" text-anchor="middle" class="small">n/a — no released proxy archive</text>
<text x="1214" y="286.00" class="small">dominant behavior n/a</text>
<rect x="184" y="318" width="56" height="22" rx="12" fill="#2dd4bf"/>
<text x="212.00" y="334.00" text-anchor="middle" class="celltext-dark">L</text>
<text x="258" y="334.00" class="label">Qwen-L</text>
<rect x="430" y="314" width="760" height="30" rx="10" class="muted-bar"/>
<rect x="430" y="314" width="760" height="30" rx="10" fill="url(#diagonalHatch)" opacity="0.85"/>
<text x="810.00" y="334.00" text-anchor="middle" class="small">n/a — no released proxy archive</text>
<text x="1214" y="334.00" class="small">dominant behavior n/a</text>
<rect x="184" y="366" width="56" height="22" rx="12" fill="#1d4ed8"/>
<text x="212.00" y="382.00" text-anchor="middle" class="celltext">S</text>
<text x="258" y="382.00" class="label">DeepSeek-S</text>
<rect x="430" y="362" width="760" height="30" rx="10" class="muted-bar"/>
<rect x="430" y="362" width="760" height="30" rx="10" fill="url(#diagonalHatch)" opacity="0.85"/>
<text x="810.00" y="382.00" text-anchor="middle" class="small">n/a — no released proxy archive</text>
<text x="1214" y="382.00" class="small">dominant behavior n/a</text>
<rect x="184" y="414" width="56" height="22" rx="12" fill="#2563eb"/>
<text x="212.00" y="430.00" text-anchor="middle" class="celltext">M</text>
<text x="258" y="430.00" class="label">DeepSeek-M</text>
<rect x="430" y="410" width="760" height="30" rx="10" class="muted-bar"/>
<rect x="430" y="410" width="760" height="30" rx="10" fill="url(#diagonalHatch)" opacity="0.85"/>
<text x="810.00" y="430.00" text-anchor="middle" class="small">n/a — no released proxy archive</text>
<text x="1214" y="430.00" class="small">dominant behavior n/a</text>
<rect x="184" y="462" width="56" height="22" rx="12" fill="#60a5fa"/>
<text x="212.00" y="478.00" text-anchor="middle" class="celltext-dark">L</text>
<text x="258" y="478.00" class="label">DeepSeek-L</text>
<rect x="430" y="458" width="760" height="30" rx="10" class="muted-bar"/>
<rect x="430" y="458" width="760" height="30" rx="10" fill="url(#diagonalHatch)" opacity="0.85"/>
<text x="810.00" y="478.00" text-anchor="middle" class="small">n/a — no released proxy archive</text>
<text x="1214" y="478.00" class="small">dominant behavior n/a</text>
<rect x="184" y="510" width="56" height="22" rx="12" fill="#c2410c"/>
<text x="212.00" y="526.00" text-anchor="middle" class="celltext">S</text>
<text x="258" y="526.00" class="label">Llama-S</text>
<rect x="430" y="506" width="760" height="30" rx="10" class="muted-bar"/>
<rect x="430" y="506" width="760" height="30" rx="10" fill="url(#diagonalHatch)" opacity="0.85"/>
<text x="810.00" y="526.00" text-anchor="middle" class="small">n/a — no released proxy archive</text>
<text x="1214" y="526.00" class="small">dominant behavior n/a</text>
<rect x="184" y="558" width="56" height="22" rx="12" fill="#ea580c"/>
<text x="212.00" y="574.00" text-anchor="middle" class="celltext">M</text>
<text x="258" y="574.00" class="label">Llama-M</text>
<rect x="430" y="554" width="760" height="30" rx="10" class="muted-bar"/>
<rect x="430" y="554" width="760" height="30" rx="10" fill="url(#diagonalHatch)" opacity="0.85"/>
<text x="810.00" y="574.00" text-anchor="middle" class="small">n/a — no released proxy archive</text>
<text x="1214" y="574.00" class="small">dominant behavior n/a</text>
<rect x="184" y="606" width="56" height="22" rx="12" fill="#fb923c"/>
<text x="212.00" y="622.00" text-anchor="middle" class="celltext-dark">L</text>
<text x="258" y="622.00" class="label">Llama-L</text>
<rect x="430" y="602" width="760" height="30" rx="10" class="muted-bar"/>
<rect x="430" y="602" width="760" height="30" rx="10" fill="url(#diagonalHatch)" opacity="0.85"/>
<text x="810.00" y="622.00" text-anchor="middle" class="small">n/a — no released proxy archive</text>
<text x="1214" y="622.00" class="small">dominant behavior n/a</text>
<rect x="184" y="654" width="56" height="22" rx="12" fill="#6d28d9"/>
<text x="212.00" y="670.00" text-anchor="middle" class="celltext">S</text>
<text x="258" y="670.00" class="label">Gemma-S</text>
<rect x="430" y="650" width="760" height="30" rx="10" class="muted-bar"/>
<rect x="430" y="650" width="760" height="30" rx="10" fill="url(#diagonalHatch)" opacity="0.85"/>
<text x="810.00" y="670.00" text-anchor="middle" class="small">n/a — no released proxy archive</text>
<text x="1214" y="670.00" class="small">dominant behavior n/a</text>
<rect x="184" y="702" width="56" height="22" rx="12" fill="#8b5cf6"/>
<text x="212.00" y="718.00" text-anchor="middle" class="celltext">M</text>
<text x="258" y="718.00" class="label">Gemma-M</text>
<rect x="430" y="698" width="760" height="30" rx="10" class="muted-bar"/>
<rect x="430" y="698" width="760" height="30" rx="10" fill="url(#diagonalHatch)" opacity="0.85"/>
<text x="810.00" y="718.00" text-anchor="middle" class="small">n/a — no released proxy archive</text>
<text x="1214" y="718.00" class="small">dominant behavior n/a</text>
<rect x="184" y="750" width="56" height="22" rx="12" fill="#c4b5fd"/>
<text x="212.00" y="766.00" text-anchor="middle" class="celltext-dark">L</text>
<text x="258" y="766.00" class="label">Gemma-L</text>
<rect x="430" y="746" width="760" height="30" rx="10" class="muted-bar"/>
<rect x="430" y="746" width="760" height="30" rx="10" fill="url(#diagonalHatch)" opacity="0.85"/>
<text x="810.00" y="766.00" text-anchor="middle" class="small">n/a — no released proxy archive</text>
<text x="1214" y="766.00" class="small">dominant behavior n/a</text>
<rect x="48" y="830" width="1684" height="138" rx="18" class="legend-card"/>
<text x="72" y="854" class="tiny">BEHAVIOR LEGEND</text>
<rect x="72" y="869" width="16" height="16" rx="4" fill="#2563eb"/>
<text x="96" y="881" class="small">Protective refusal</text>
<rect x="542" y="869" width="16" height="16" rx="4" fill="#0f766e"/>
<text x="566" y="881" class="small">Protective redirect</text>
<rect x="1012" y="869" width="16" height="16" rx="4" fill="#2f855a"/>
<text x="1036" y="881" class="small">Corrective / contextual response</text>
<rect x="72" y="899" width="16" height="16" rx="4" fill="#6b7280"/>
<text x="96" y="911" class="small">Direct task answer</text>
<rect x="542" y="899" width="16" height="16" rx="4" fill="#dc2626"/>
<text x="566" y="911" class="small">Potentially risky continuation</text>
<rect x="1012" y="899" width="16" height="16" rx="4" fill="#d97706"/>
<text x="1036" y="911" class="small">Ambiguous visible answer</text>
<rect x="72" y="929" width="16" height="16" rx="4" fill="#cbd5e1"/>
<text x="96" y="941" class="small">No visible answer</text>
<text x="72" y="944" class="body">This is the headline proxy-result view for DeNEVIL in the public release. Route names, sample counts, timestamps, and raw valid-response coverage stay in the appendix provenance figures below.</text>
</svg>
