<svg xmlns="http://www.w3.org/2000/svg" width="1280" height="1040" viewBox="0 0 1280 1040" role="img">
<defs>
<linearGradient id="panelGradient" x1="0" x2="0" y1="0" y2="1">
<stop offset="0%" stop-color="#ffffff"/>
<stop offset="100%" stop-color="#f8fafc"/>
</linearGradient>
<pattern id="diagonalHatch" width="8" height="8" patternUnits="userSpaceOnUse" patternTransform="rotate(45)">
<line x1="0" y1="0" x2="0" y2="8" stroke="#cdd6e1" stroke-width="3"/>
</pattern>
<filter id="softShadow" x="-20%" y="-20%" width="140%" height="140%">
<feDropShadow dx="0" dy="6" stdDeviation="10" flood-color="#9fb0c2" flood-opacity="0.18"/>
</filter>
<style>
.canvas { fill: #f3f6fa; }
.title { font: 700 26px 'IBM Plex Sans', 'Helvetica Neue', Arial, sans-serif; fill: #12263a; }
.subtitle { font: 400 14px 'IBM Plex Sans', 'Helvetica Neue', Arial, sans-serif; fill: #5c6b7a; }
.axis { font: 600 14px 'IBM Plex Sans', 'Helvetica Neue', Arial, sans-serif; fill: #22313f; }
.label { font: 500 13px 'IBM Plex Sans', 'Helvetica Neue', Arial, sans-serif; fill: #22313f; }
.metric { font: 700 20px 'IBM Plex Sans', 'Helvetica Neue', Arial, sans-serif; fill: #12263a; }
.celltext { font: 700 16px 'IBM Plex Sans', 'Helvetica Neue', Arial, sans-serif; fill: #ffffff; }
.celltext-dark { font: 700 16px 'IBM Plex Sans', 'Helvetica Neue', Arial, sans-serif; fill: #173042; }
.cellsub { font: 500 11px 'IBM Plex Sans', 'Helvetica Neue', Arial, sans-serif; fill: rgba(255,255,255,0.88); }
.cellsub-dark { font: 600 11px 'IBM Plex Sans', 'Helvetica Neue', Arial, sans-serif; fill: #385062; }
.body { font: 500 12px 'IBM Plex Sans', 'Helvetica Neue', Arial, sans-serif; fill: #22313f; }
.small { font: 500 11px 'IBM Plex Sans', 'Helvetica Neue', Arial, sans-serif; fill: #5c6b7a; }
.tiny { font: 600 10px 'IBM Plex Sans', 'Helvetica Neue', Arial, sans-serif; fill: #6b7c8f; letter-spacing: 0.04em; }
.grid { fill: #ffffff; stroke: #d7dee6; stroke-width: 1.25; }
.panel { fill: url(#panelGradient); stroke: #dbe4ee; stroke-width: 1.25; filter: url(#softShadow); }
.subpanel { fill: #ffffff; stroke: #e2e8f0; stroke-width: 1; }
.legend-card { fill: #ffffff; stroke: #dbe4ee; stroke-width: 1; }
.guide { stroke: #d7dee6; stroke-width: 1; stroke-dasharray: 4 6; }
.baseline { stroke: #aab7c6; stroke-width: 1.1; }
.muted-cell { fill: #eef2f7; stroke: #d7dee6; stroke-width: 1; }
.muted-bar { fill: #ecf1f6; stroke: #d7dee6; stroke-width: 1; }
.outline { stroke: rgba(255,255,255,0.9); stroke-width: 1; }
</style>
</defs>
<rect class="canvas" width="1280" height="1040" rx="0"/>
<text class="title" x="48" y="52">Joseph's Benchmark Progress Overview</text>
<text class="subtitle" x="48" y="76">5 benchmarks x 15 model lines — updated April 30, 2026</text>
<rect x="700" y="42" width="18" height="18" rx="4" fill="#2ea043"/>
<text class="small" x="724" y="56">Done</text>
<rect x="790" y="42" width="18" height="18" rx="4" fill="#d29922"/>
<text class="small" x="814" y="56">Partial</text>
<rect x="880" y="42" width="18" height="18" rx="4" fill="#cf222e"/>
<text class="small" x="904" y="56">Error</text>
<rect x="970" y="42" width="18" height="18" rx="4" fill="#1f6feb"/>
<text class="small" x="994" y="56">Live</text>
<rect x="1060" y="42" width="18" height="18" rx="4" fill="#dbe4ee"/>
<text class="small" x="1084" y="56">Queue</text>
<text class="axis" x="238" y="100" text-anchor="middle">TrolleyBench</text>
<text class="axis" x="378" y="100" text-anchor="middle">MoReBench</text>
<text class="axis" x="518" y="100" text-anchor="middle">Moral Circuits</text>
<text class="axis" x="658" y="100" text-anchor="middle">M3oralBench</text>
<text class="axis" x="798" y="100" text-anchor="middle">MoralLens</text>
<text class="label" x="56" y="144">Qwen-S</text>
<rect x="168" y="116" width="134" height="44" rx="8" fill="#2ea043"/>
<text class="celltext" x="235" y="140" text-anchor="middle">Done</text>
<rect x="308" y="116" width="134" height="44" rx="8" fill="#2ea043"/>
<text class="celltext" x="375" y="140" text-anchor="middle">Done</text>
<text class="cellsub" x="375" y="154" text-anchor="middle">adv=0.60</text>
<rect x="448" y="116" width="134" height="44" rx="8" fill="#2ea043"/>
<text class="celltext" x="515" y="140" text-anchor="middle">Done</text>
<text class="cellsub" x="515" y="154" text-anchor="middle">jdg=0.93</text>
<rect x="588" y="116" width="134" height="44" rx="8" fill="#cf222e"/>
<text class="celltext" x="655" y="140" text-anchor="middle">Error</text>
<text class="cellsub" x="655" y="154" text-anchor="middle">fnd=0.05</text>
<rect x="728" y="116" width="134" height="44" rx="8" fill="#2ea043"/>
<text class="celltext" x="795" y="140" text-anchor="middle">Done</text>
<text class="cellsub" x="795" y="154" text-anchor="middle">cot=0.92</text>
<text class="label" x="56" y="200">Qwen-M</text>
<rect x="168" y="172" width="134" height="44" rx="8" fill="#2ea043"/>
<text class="celltext" x="235" y="196" text-anchor="middle">Done</text>
<rect x="308" y="172" width="134" height="44" rx="8" fill="#2ea043"/>
<text class="celltext" x="375" y="196" text-anchor="middle">Done</text>
<text class="cellsub" x="375" y="210" text-anchor="middle">adv=0.40</text>
<rect x="448" y="172" width="134" height="44" rx="8" fill="#2ea043"/>
<text class="celltext" x="515" y="196" text-anchor="middle">Done</text>
<text class="cellsub" x="515" y="210" text-anchor="middle">jdg=0.19</text>
<rect x="588" y="172" width="134" height="44" rx="8" fill="#1f6feb"/>
<text class="celltext" x="655" y="196" text-anchor="middle">Live</text>
<rect x="728" y="172" width="134" height="44" rx="8" fill="#dbe4ee"/>
<text class="celltext-dark" x="795" y="196" text-anchor="middle">Queue</text>
<text class="label" x="56" y="256">Qwen-L</text>
<rect x="168" y="228" width="134" height="44" rx="8" fill="#2ea043"/>
<text class="celltext" x="235" y="252" text-anchor="middle">Done</text>
<rect x="308" y="228" width="134" height="44" rx="8" fill="#dbe4ee"/>
<text class="celltext-dark" x="375" y="252" text-anchor="middle">Queue</text>
<rect x="448" y="228" width="134" height="44" rx="8" fill="#dbe4ee"/>
<text class="celltext-dark" x="515" y="252" text-anchor="middle">Queue</text>
<rect x="588" y="228" width="134" height="44" rx="8" fill="#dbe4ee"/>
<text class="celltext-dark" x="655" y="252" text-anchor="middle">Queue</text>
<rect x="728" y="228" width="134" height="44" rx="8" fill="#dbe4ee"/>
<text class="celltext-dark" x="795" y="252" text-anchor="middle">Queue</text>
<text class="label" x="56" y="312">DS-S</text>
<rect x="168" y="284" width="134" height="44" rx="8" fill="#2ea043"/>
<text class="celltext" x="235" y="308" text-anchor="middle">Done</text>
<rect x="308" y="284" width="134" height="44" rx="8" fill="#dbe4ee"/>
<text class="celltext-dark" x="375" y="308" text-anchor="middle">Queue</text>
<rect x="448" y="284" width="134" height="44" rx="8" fill="#dbe4ee"/>
<text class="celltext-dark" x="515" y="308" text-anchor="middle">Queue</text>
<rect x="588" y="284" width="134" height="44" rx="8" fill="#dbe4ee"/>
<text class="celltext-dark" x="655" y="308" text-anchor="middle">Queue</text>
<rect x="728" y="284" width="134" height="44" rx="8" fill="#dbe4ee"/>
<text class="celltext-dark" x="795" y="308" text-anchor="middle">Queue</text>
<text class="label" x="56" y="368">DS-M</text>
<rect x="168" y="340" width="134" height="44" rx="8" fill="#2ea043"/>
<text class="celltext" x="235" y="364" text-anchor="middle">Done</text>
<rect x="308" y="340" width="134" height="44" rx="8" fill="#dbe4ee"/>
<text class="celltext-dark" x="375" y="364" text-anchor="middle">Queue</text>
<rect x="448" y="340" width="134" height="44" rx="8" fill="#dbe4ee"/>
<text class="celltext-dark" x="515" y="364" text-anchor="middle">Queue</text>
<rect x="588" y="340" width="134" height="44" rx="8" fill="#dbe4ee"/>
<text class="celltext-dark" x="655" y="364" text-anchor="middle">Queue</text>
<rect x="728" y="340" width="134" height="44" rx="8" fill="#dbe4ee"/>
<text class="celltext-dark" x="795" y="364" text-anchor="middle">Queue</text>
<text class="label" x="56" y="424">DS-L</text>
<rect x="168" y="396" width="134" height="44" rx="8" fill="#2ea043"/>
<text class="celltext" x="235" y="420" text-anchor="middle">Done</text>
<rect x="308" y="396" width="134" height="44" rx="8" fill="#dbe4ee"/>
<text class="celltext-dark" x="375" y="420" text-anchor="middle">Queue</text>
<rect x="448" y="396" width="134" height="44" rx="8" fill="#dbe4ee"/>
<text class="celltext-dark" x="515" y="420" text-anchor="middle">Queue</text>
<rect x="588" y="396" width="134" height="44" rx="8" fill="#dbe4ee"/>
<text class="celltext-dark" x="655" y="420" text-anchor="middle">Queue</text>
<rect x="728" y="396" width="134" height="44" rx="8" fill="#dbe4ee"/>
<text class="celltext-dark" x="795" y="420" text-anchor="middle">Queue</text>
<text class="label" x="56" y="480">Llama-S</text>
<rect x="168" y="452" width="134" height="44" rx="8" fill="#2ea043"/>
<text class="celltext" x="235" y="476" text-anchor="middle">Done</text>
<rect x="308" y="452" width="134" height="44" rx="8" fill="#dbe4ee"/>
<text class="celltext-dark" x="375" y="476" text-anchor="middle">Queue</text>
<rect x="448" y="452" width="134" height="44" rx="8" fill="#dbe4ee"/>
<text class="celltext-dark" x="515" y="476" text-anchor="middle">Queue</text>
<rect x="588" y="452" width="134" height="44" rx="8" fill="#dbe4ee"/>
<text class="celltext-dark" x="655" y="476" text-anchor="middle">Queue</text>
<rect x="728" y="452" width="134" height="44" rx="8" fill="#dbe4ee"/>
<text class="celltext-dark" x="795" y="476" text-anchor="middle">Queue</text>
<text class="label" x="56" y="536">Llama-M</text>
<rect x="168" y="508" width="134" height="44" rx="8" fill="#2ea043"/>
<text class="celltext" x="235" y="532" text-anchor="middle">Done</text>
<rect x="308" y="508" width="134" height="44" rx="8" fill="#dbe4ee"/>
<text class="celltext-dark" x="375" y="532" text-anchor="middle">Queue</text>
<rect x="448" y="508" width="134" height="44" rx="8" fill="#dbe4ee"/>
<text class="celltext-dark" x="515" y="532" text-anchor="middle">Queue</text>
<rect x="588" y="508" width="134" height="44" rx="8" fill="#dbe4ee"/>
<text class="celltext-dark" x="655" y="532" text-anchor="middle">Queue</text>
<rect x="728" y="508" width="134" height="44" rx="8" fill="#dbe4ee"/>
<text class="celltext-dark" x="795" y="532" text-anchor="middle">Queue</text>
<text class="label" x="56" y="592">Llama-L</text>
<rect x="168" y="564" width="134" height="44" rx="8" fill="#2ea043"/>
<text class="celltext" x="235" y="588" text-anchor="middle">Done</text>
<rect x="308" y="564" width="134" height="44" rx="8" fill="#dbe4ee"/>
<text class="celltext-dark" x="375" y="588" text-anchor="middle">Queue</text>
<rect x="448" y="564" width="134" height="44" rx="8" fill="#dbe4ee"/>
<text class="celltext-dark" x="515" y="588" text-anchor="middle">Queue</text>
<rect x="588" y="564" width="134" height="44" rx="8" fill="#dbe4ee"/>
<text class="celltext-dark" x="655" y="588" text-anchor="middle">Queue</text>
<rect x="728" y="564" width="134" height="44" rx="8" fill="#dbe4ee"/>
<text class="celltext-dark" x="795" y="588" text-anchor="middle">Queue</text>
<text class="label" x="56" y="648">Gemma-S</text>
<rect x="168" y="620" width="134" height="44" rx="8" fill="#2ea043"/>
<text class="celltext" x="235" y="644" text-anchor="middle">Done</text>
<rect x="308" y="620" width="134" height="44" rx="8" fill="#dbe4ee"/>
<text class="celltext-dark" x="375" y="644" text-anchor="middle">Queue</text>
<rect x="448" y="620" width="134" height="44" rx="8" fill="#94a3b8"/>
<text class="celltext-dark" x="515" y="644" text-anchor="middle">N/A</text>
<rect x="588" y="620" width="134" height="44" rx="8" fill="#dbe4ee"/>
<text class="celltext-dark" x="655" y="644" text-anchor="middle">Queue</text>
<rect x="728" y="620" width="134" height="44" rx="8" fill="#dbe4ee"/>
<text class="celltext-dark" x="795" y="644" text-anchor="middle">Queue</text>
<text class="label" x="56" y="704">Gemma-M</text>
<rect x="168" y="676" width="134" height="44" rx="8" fill="#2ea043"/>
<text class="celltext" x="235" y="700" text-anchor="middle">Done</text>
<rect x="308" y="676" width="134" height="44" rx="8" fill="#dbe4ee"/>
<text class="celltext-dark" x="375" y="700" text-anchor="middle">Queue</text>
<rect x="448" y="676" width="134" height="44" rx="8" fill="#94a3b8"/>
<text class="celltext-dark" x="515" y="700" text-anchor="middle">N/A</text>
<rect x="588" y="676" width="134" height="44" rx="8" fill="#dbe4ee"/>
<text class="celltext-dark" x="655" y="700" text-anchor="middle">Queue</text>
<rect x="728" y="676" width="134" height="44" rx="8" fill="#dbe4ee"/>
<text class="celltext-dark" x="795" y="700" text-anchor="middle">Queue</text>
<text class="label" x="56" y="760">Gemma-L</text>
<rect x="168" y="732" width="134" height="44" rx="8" fill="#2ea043"/>
<text class="celltext" x="235" y="756" text-anchor="middle">Done</text>
<rect x="308" y="732" width="134" height="44" rx="8" fill="#dbe4ee"/>
<text class="celltext-dark" x="375" y="756" text-anchor="middle">Queue</text>
<rect x="448" y="732" width="134" height="44" rx="8" fill="#94a3b8"/>
<text class="celltext-dark" x="515" y="756" text-anchor="middle">N/A</text>
<rect x="588" y="732" width="134" height="44" rx="8" fill="#dbe4ee"/>
<text class="celltext-dark" x="655" y="756" text-anchor="middle">Queue</text>
<rect x="728" y="732" width="134" height="44" rx="8" fill="#dbe4ee"/>
<text class="celltext-dark" x="795" y="756" text-anchor="middle">Queue</text>
<text class="label" x="56" y="816">MM-S</text>
<rect x="168" y="788" width="134" height="44" rx="8" fill="#2ea043"/>
<text class="celltext" x="235" y="812" text-anchor="middle">Done</text>
<rect x="308" y="788" width="134" height="44" rx="8" fill="#dbe4ee"/>
<text class="celltext-dark" x="375" y="812" text-anchor="middle">Queue</text>
<rect x="448" y="788" width="134" height="44" rx="8" fill="#94a3b8"/>
<text class="celltext-dark" x="515" y="812" text-anchor="middle">N/A</text>
<rect x="588" y="788" width="134" height="44" rx="8" fill="#dbe4ee"/>
<text class="celltext-dark" x="655" y="812" text-anchor="middle">Queue</text>
<rect x="728" y="788" width="134" height="44" rx="8" fill="#dbe4ee"/>
<text class="celltext-dark" x="795" y="812" text-anchor="middle">Queue</text>
<text class="label" x="56" y="872">MM-M</text>
<rect x="168" y="844" width="134" height="44" rx="8" fill="#2ea043"/>
<text class="celltext" x="235" y="868" text-anchor="middle">Done</text>
<rect x="308" y="844" width="134" height="44" rx="8" fill="#dbe4ee"/>
<text class="celltext-dark" x="375" y="868" text-anchor="middle">Queue</text>
<rect x="448" y="844" width="134" height="44" rx="8" fill="#94a3b8"/>
<text class="celltext-dark" x="515" y="868" text-anchor="middle">N/A</text>
<rect x="588" y="844" width="134" height="44" rx="8" fill="#dbe4ee"/>
<text class="celltext-dark" x="655" y="868" text-anchor="middle">Queue</text>
<rect x="728" y="844" width="134" height="44" rx="8" fill="#dbe4ee"/>
<text class="celltext-dark" x="795" y="868" text-anchor="middle">Queue</text>
<text class="label" x="56" y="928">MM-L</text>
<rect x="168" y="900" width="134" height="44" rx="8" fill="#2ea043"/>
<text class="celltext" x="235" y="924" text-anchor="middle">Done</text>
<rect x="308" y="900" width="134" height="44" rx="8" fill="#dbe4ee"/>
<text class="celltext-dark" x="375" y="924" text-anchor="middle">Queue</text>
<rect x="448" y="900" width="134" height="44" rx="8" fill="#94a3b8"/>
<text class="celltext-dark" x="515" y="924" text-anchor="middle">N/A</text>
<rect x="588" y="900" width="134" height="44" rx="8" fill="#dbe4ee"/>
<text class="celltext-dark" x="655" y="924" text-anchor="middle">Queue</text>
<rect x="728" y="900" width="134" height="44" rx="8" fill="#dbe4ee"/>
<text class="celltext-dark" x="795" y="924" text-anchor="middle">Queue</text>
<rect class="panel" x="48" y="970" width="1184" height="90" rx="16"/>
<text class="metric" x="80" y="1006">Progress: 20 / 69 cells done (29%)</text>
<text class="body" x="80" y="1028">Qwen-S complete. Qwen-M: MoReBench+MC done, M3oralBench running. 13 models queued.</text>
<text class="small" x="80" y="1046">Qwen-M scores lower than Qwen-S on MoReBench (adv 0.40 vs 0.60) and Moral Circuits (jdg 0.19 vs 0.93)</text>
</svg>